# xmcd
#
# Track frame offsets:
#	150
#	13202
#	27970
#	40802
#	54270
#	68317
#	79384
#	97555
#	112909
#	126873
#	139561
#	152316
#	167604
#	180972
#	195207
#	210004
#	220317
#	231438
#	244139
#	258588
#
# Disc length: 3619 seconds
#
# Revision: 0
# Processed by: cddbd v1.5.1PL2 Copyright (c) Steve Scherf et al.
# Submitted via: dBpowerAMP V4.0
#
DISCID=ef0e2114
DTITLE=Various Artist - Ladies Sing the Blues
DYEAR=1900
DGENRE=Blues
TTITLE0=Dinah Washington - Trouble In Mind
TTITLE1=Sarah Vaughan - Loverman
TTITLE2=Ella Fitzgerald - A Tisket, A Tasket
TTITLE3=Bessie Smith  - On Revial Day
TTITLE4=Billie Holdiay - I Gotta Right To Sing The blues
TTITLE5=Dinah Washington - Good Daddy Blues
TTITLE6=Sarah Vaughan - Lullaby of Birdland
TTITLE7=Ella Fitzgerald - Basin Street blues
TTITLE8=Bessie Smith - St Louis Blues
TTITLE9=Billie Holiday - You're A Luck Guy 
TTITLE10=Dinah Washinton - Teach Me Tonight
TTITLE11=Sarah Vaughan - Mean To Me
TTITLE12=Ella Fitzgerald - Cow Cow Boogie
TTITLE13=Bessie Smith - Oh Daddy
TTITLE14=Billie Holiday - You Can't Lose a Broken Heart
TTITLE15=Dinah Washington - Wheel of Fortune
TTITLE16=Sarah Vaughan - Perdido
TTITLE17=Ella Fitzgerald - Blue Lou
TTITLE18=Bessie Smith - Keeps On A'Rainin'
TTITLE19=Billie Holiday - You Go To My Head
EXTD=
EXTT0=
EXTT1=
EXTT2=
EXTT3=
EXTT4=
EXTT5=
EXTT6=
EXTT7=
EXTT8=
EXTT9=
EXTT10=
EXTT11=
EXTT12=
EXTT13=
EXTT14=
EXTT15=
EXTT16=
EXTT17=
EXTT18=
EXTT19=
PLAYORDER=
